<?xml version="1.0" encoding="utf-8"?>
<!-- Generator: Adobe Illustrator 26.4.0, SVG Export Plug-In . SVG Version: 6.00 Build 0)  -->
<svg version="1.1"
	 id="svg8" xmlns:rdf="http://www.w3.org/1999/02/22-rdf-syntax-ns#" xmlns:svg="http://www.w3.org/2000/svg" xmlns:cc="http://creativecommons.org/ns#" xmlns:inkscape="http://www.inkscape.org/namespaces/inkscape" xmlns:dc="http://purl.org/dc/elements/1.1/" xmlns:sodipodi="http://sodipodi.sourceforge.net/DTD/sodipodi-0.dtd"
	 xmlns="http://www.w3.org/2000/svg" xmlns:xlink="http://www.w3.org/1999/xlink" x="0px" y="0px" viewBox="0 0 1600 1600"
	 style="enable-background:new 0 0 1600 1600;" xml:space="preserve">
<sodipodi:namedview  bordercolor="#666666" borderopacity="1.0" id="base" inkscape:current-layer="layer1" inkscape:cx="400" inkscape:cy="560" inkscape:document-rotation="0" inkscape:document-units="mm" inkscape:pageopacity="0.0" inkscape:pageshadow="2" inkscape:snap-global="true" inkscape:window-height="880" inkscape:window-maximized="0" inkscape:window-width="1600" inkscape:window-x="0" inkscape:window-y="23" inkscape:zoom="0.35" pagecolor="#ffffff" showgrid="false" units="px">
	</sodipodi:namedview>
<path d="M1254.3,986.4c1.7,10.3,2.4,20.6,2.4,31.3c0,110-89,199-199,199s-199-89.4-199-199c0-84.9,52.9-157.1,127.9-186
	c0,0,0-0.3,0-0.7c77-27.5,132-101.1,132-187.3c0-8.2-0.3-16.8-1.7-24.7c-0.3-2.1-0.3-3.8-0.7-5.8c-0.3-2.8-1-5.5-1.4-8.2
	c-1-8.2-1.7-16.5-1.7-24.7c0.3-110,89.4-199,199.4-199c110,0,199,89,199,199c0,86.3-55,159.8-132,187.3l0,0l0,0
	c-74.2,29.2-127.2,101.4-127.2,186C1252.2,964.4,1252.5,975.7,1254.3,986.4z M487.4,581.1c0,110-89.4,199.4-199.4,199.4
	S88.6,691.1,88.6,581.1S178,381.7,288,381.7S487.4,470.7,487.4,581.1z M603.1,611.5l-2.4-28.3c-0.2-2.1-0.3-4.2-0.3-6.4
	c1.7-108.5,90.1-195.8,199-195.8c110,0,199,89,199,199c0.3,86.3-54.7,159.8-131.7,187.3l0,0l0,0c-74.2,29.2-127.2,101.4-127.2,186
	c0,11,0.3,22.3,2.1,33c1.7,10.3,2.4,20.6,2.4,31.3c0,110.3-89.5,199.5-199.8,199c-110.7-0.4-199.2-90.1-198.2-200.7
	c0.7-84.2,53.4-155.6,127.9-184.2c77-27.5,132-101.7,132-188c0-7.8-1.2-21.2-2.5-29.3C603.3,613.4,603.2,612.4,603.1,611.5
	L603.1,611.5z"/>
</svg>
