<?xml version="1.0" encoding="utf-8"?>
<!-- Generator: Adobe Illustrator 26.4.0, SVG Export Plug-In . SVG Version: 6.00 Build 0)  -->
<svg version="1.1"
	 id="svg8" xmlns:rdf="http://www.w3.org/1999/02/22-rdf-syntax-ns#" xmlns:svg="http://www.w3.org/2000/svg" xmlns:cc="http://creativecommons.org/ns#" xmlns:inkscape="http://www.inkscape.org/namespaces/inkscape" xmlns:dc="http://purl.org/dc/elements/1.1/" xmlns:sodipodi="http://sodipodi.sourceforge.net/DTD/sodipodi-0.dtd"
	 xmlns="http://www.w3.org/2000/svg" xmlns:xlink="http://www.w3.org/1999/xlink" x="0px" y="0px" viewBox="0 0 16 16"
	 style="enable-background:new 0 0 16 16;" xml:space="preserve">
<style type="text/css">
	.st0{fill:#1D1D1B;}
</style>
<sodipodi:namedview  bordercolor="#666666" borderopacity="1.0" id="base" inkscape:current-layer="layer1" inkscape:cx="400" inkscape:cy="560" inkscape:document-rotation="0" inkscape:document-units="mm" inkscape:pageopacity="0.0" inkscape:pageshadow="2" inkscape:snap-global="true" inkscape:window-height="880" inkscape:window-maximized="0" inkscape:window-width="1600" inkscape:window-x="0" inkscape:window-y="23" inkscape:zoom="0.35" pagecolor="#ffffff" showgrid="false" units="px">
	</sodipodi:namedview>
<circle class="st0" cx="2.6" cy="5.5" r="2.1"/>
<path class="st0" d="M8,3.4c-1.2,0-2.1,0.9-2.1,2.1c0,0.1,0,0.2,0,0.3c0,0,0,0,0,0C6,6,6,6.1,6,6.2c0,0.9-0.6,1.7-1.3,2c0,0,0,0,0,0
	c-0.8,0.3-1.4,1.1-1.4,2c0,1.2,0.9,2.1,2.1,2.1s2.1-0.9,2.1-2.1c0-0.1,0-0.3,0-0.4c0-0.1,0-0.2,0-0.2c0-0.9,0.6-1.7,1.4-2
	c0.8-0.3,1.3-1.1,1.3-2C10.1,4.4,9.2,3.4,8,3.4z"/>
<path class="st0" d="M13.5,3.4c-1.2,0-2.1,0.9-2.1,2.1c0,0.1,0,0.2,0,0.3c0,0,0,0,0,0c0,0.1,0,0.2,0,0.4c0,0.9-0.6,1.7-1.3,2
	c0,0,0,0,0,0c-0.8,0.3-1.4,1.1-1.4,2c0,1.2,0.9,2.1,2.1,2.1s2.1-0.9,2.1-2.1c0-0.1,0-0.3,0-0.4c0-0.1,0-0.2,0-0.2
	c0-0.9,0.6-1.7,1.4-2c0.8-0.3,1.3-1.1,1.3-2C15.6,4.4,14.6,3.4,13.5,3.4z"/>
</svg>
