<?xml version="1.0" encoding="utf-8"?>
<!-- Generator: Adobe Illustrator 26.4.0, SVG Export Plug-In . SVG Version: 6.00 Build 0)  -->
<svg version="1.1"
	 id="svg8" xmlns:rdf="http://www.w3.org/1999/02/22-rdf-syntax-ns#" xmlns:svg="http://www.w3.org/2000/svg" xmlns:cc="http://creativecommons.org/ns#" xmlns:inkscape="http://www.inkscape.org/namespaces/inkscape" xmlns:dc="http://purl.org/dc/elements/1.1/" xmlns:sodipodi="http://sodipodi.sourceforge.net/DTD/sodipodi-0.dtd"
	 xmlns="http://www.w3.org/2000/svg" xmlns:xlink="http://www.w3.org/1999/xlink" x="0px" y="0px" viewBox="0 0 32 32"
	 style="enable-background:new 0 0 32 32;" xml:space="preserve">
<sodipodi:namedview  bordercolor="#666666" borderopacity="1.0" id="base" inkscape:current-layer="layer1" inkscape:cx="400" inkscape:cy="560" inkscape:document-rotation="0" inkscape:document-units="mm" inkscape:pageopacity="0.0" inkscape:pageshadow="2" inkscape:snap-global="true" inkscape:window-height="880" inkscape:window-maximized="0" inkscape:window-width="1600" inkscape:window-x="0" inkscape:window-y="23" inkscape:zoom="0.35" pagecolor="#ffffff" showgrid="false" units="px">
	</sodipodi:namedview>
<path d="M25.4,20.8c0,0.2,0.1,0.4,0.1,0.7c0,2.3-1.9,4.1-4.1,4.1s-4.1-1.9-4.1-4.1c0-1.8,1.1-3.3,2.7-3.9c0,0,0,0,0,0
	c1.6-0.6,2.7-2.1,2.7-3.9c0-0.2,0-0.4,0-0.5c0,0,0-0.1,0-0.1c0-0.1,0-0.1,0-0.2c0-0.2,0-0.3,0-0.5c0-2.3,1.9-4.1,4.1-4.1
	s4.1,1.9,4.1,4.1c0,1.8-1.1,3.3-2.7,3.9l0,0l0,0c-1.5,0.6-2.6,2.1-2.6,3.9C25.4,20.3,25.4,20.5,25.4,20.8z M9.5,12.3
	c0,2.3-1.9,4.1-4.1,4.1s-4.1-1.9-4.1-4.1s1.9-4.1,4.1-4.1S9.5,10,9.5,12.3z M11.9,13l0-0.6c0,0,0-0.1,0-0.1c0-2.3,1.9-4.1,4.1-4.1
	c2.3,0,4.1,1.9,4.1,4.1c0,1.8-1.1,3.3-2.7,3.9l0,0l0,0c-1.5,0.6-2.6,2.1-2.6,3.9c0,0.2,0,0.5,0,0.7c0,0.2,0.1,0.4,0.1,0.7
	c0,2.3-1.9,4.1-4.2,4.1c-2.3,0-4.1-1.9-4.1-4.2c0-1.8,1.1-3.2,2.7-3.8c1.6-0.6,2.7-2.1,2.7-3.9C12,13.5,11.9,13.2,11.9,13
	C11.9,13,11.9,13,11.9,13L11.9,13z"/>
</svg>
