<?xml version="1.0" encoding="utf-8"?>
<!-- Generator: Adobe Illustrator 26.4.0, SVG Export Plug-In . SVG Version: 6.00 Build 0)  -->
<svg version="1.1"
	 id="svg8" xmlns:rdf="http://www.w3.org/1999/02/22-rdf-syntax-ns#" xmlns:svg="http://www.w3.org/2000/svg" xmlns:cc="http://creativecommons.org/ns#" xmlns:inkscape="http://www.inkscape.org/namespaces/inkscape" xmlns:dc="http://purl.org/dc/elements/1.1/" xmlns:sodipodi="http://sodipodi.sourceforge.net/DTD/sodipodi-0.dtd"
	 xmlns="http://www.w3.org/2000/svg" xmlns:xlink="http://www.w3.org/1999/xlink" x="0px" y="0px" viewBox="0 0 20 16"
	 style="enable-background:new 0 0 20 16;" xml:space="preserve">
<style type="text/css">
	.st0{fill:#1D1D1B;}
</style>
<sodipodi:namedview  bordercolor="#666666" borderopacity="1.0" id="base" inkscape:current-layer="layer1" inkscape:cx="400" inkscape:cy="560" inkscape:document-rotation="0" inkscape:document-units="mm" inkscape:pageopacity="0.0" inkscape:pageshadow="2" inkscape:snap-global="true" inkscape:window-height="880" inkscape:window-maximized="0" inkscape:window-width="1600" inkscape:window-x="0" inkscape:window-y="23" inkscape:zoom="0.35" pagecolor="#ffffff" showgrid="false" units="px">
	</sodipodi:namedview>
<path class="st0" d="M3.4,2.8C2,2.8,0.9,3.9,0.9,5.3S2,7.8,3.4,7.8s2.5-1.1,2.5-2.5S4.7,2.8,3.4,2.8z"/>
<path class="st0" d="M7.7,5.8c0,0.1,0,0.2,0,0.3C7.7,7.2,7,8.2,6,8.6v0l-0.1,0C4.9,9,4.3,10,4.3,11c0,1.4,1.1,2.5,2.5,2.5
	s2.5-1.1,2.5-2.5c0-0.1,0-0.2,0-0.3c0-0.1,0-0.1,0-0.2c0-0.1,0-0.2,0-0.3C9.2,9,10,8,11.1,7.6c1-0.4,1.6-1.3,1.6-2.3
	c0-1.4-1.1-2.5-2.5-2.5S7.6,3.9,7.6,5.3c0,0.1,0,0.2,0,0.3L7.7,5.8z"/>
<path class="st0" d="M16.1,10.5c0-0.1,0-0.2,0-0.3C16,9,16.8,8,17.9,7.6c1-0.4,1.6-1.3,1.6-2.3c0-1.4-1.1-2.5-2.5-2.5
	s-2.5,1.1-2.5,2.5c0,0.1,0,0.2,0,0.3l0,0.2c0,0.1,0,0.2,0,0.3c0,1.1-0.7,2.1-1.7,2.5v0l-0.1,0c-1,0.4-1.7,1.3-1.7,2.4
	c0,1.4,1.1,2.5,2.5,2.5s2.5-1.1,2.5-2.5L16.1,10.5z"/>
</svg>
